#!OML:ASF E:/inclinewalkrobotboard/Project1/Captureday1/Session1/subject1.ASF
:FULLY-SPECIFIED
:DEGREES
138
root 0 0 0 1.5402687344314092 -3.869961275888806 1.851650477508358
lowerback 12.238247327727002 0.96193774270363 0.025465197670041073
upperback -4.446703589494945 1.2178406426472532 -0.6313276457329163
thorax -11.734792765739414 0.5633560166957965 -0.9377873506501135
lowerneck -6.068283920425911 1.8658251571433373 4.773628955155585
upperneck 18.111806554413654 3.498436318733587 -8.584841822144542
head 6.648906206102467 1.3074950558105218 -3.279762260989388
rclavicle 2.16256836999028E-15 -7.091010162144708E-16
rhumerus 21.08629821252851 15.626030517122059 -47.80806197969129
rradius 73.2755066069988
rwrist 26.694029160687542
rhand -34.61471532630214 -57.177889435880296
rfingers 7.1250200000000286
rthumb -7.716636304301707 -87.13962768624192
lclavicle -7.391518723929276E-16 -7.327097088016929E-16
lhumerus 23.16409233721167 -14.447445059057701 44.74461705120716
lradius 71.82309454061631
lwrist -22.256099707315414
lhand -45.75169434477148 -71.95391890142417
lfingers 7.1250200000000286
lthumb -18.505689297081606 -42.73734882638355
rfemur -24.965722619784636 -1.9488853140793996 17.778466581589075
rtibia 50.65130975519439
rfoot -34.26145537892766 -18.28904044028375
rtoes -21.872271261726098
lfemur -28.07885515482985 2.142823737918788 -17.146552398071066
ltibia 50.86469253087209
lfoot -35.51710035289474 -0.28665077614886014
ltoes -22.096392510617427
139
root 0 0 0 1.5400322663153103 -3.868741076781069 1.851640646722592
lowerback 12.239141386750521 0.961116469698698 0.025435549929987866
upperback -4.446770828357113 1.2168274680902618 -0.6309939556122367
thorax -11.735439415850283 0.5628503584610705 -0.9373364683589394
lowerneck -6.067782446650758 1.8661086270000802 4.7739407469502755
upperneck 18.110961742480715 3.498965230095812 -8.585466424153134
head 6.648565155067705 1.307717156046094 -3.2799725445101027
rclavicle 2.1615218708329718E-15 -7.089062598142571E-16
rhumerus 21.08688964160627 15.625580299463499 -47.80654711472266
rradius 73.27532196964691
rwrist 26.695221120553715
rhand -34.61506957011942 -57.18108322881076
rfingers 7.1250200000000286
rthumb -7.717389033390308 -87.14206734875489
lclavicle -7.390797198869111E-16 -7.487284308533881E-16
lhumerus 23.1679706981282 -14.450795880112409 44.744663421730856
lradius 71.82565949825687
lwrist -22.255166907692285
lhand -45.753144416508384 -71.95575219072089
lfingers 7.1250200000000286
lthumb -18.50721772406409 -42.73917028331809
rfemur -24.966213883259147 -1.9532202999497805 17.77635853626387
rtibia 50.66978316233915
rfoot -34.25577356706492 -18.284318100021338
rtoes -21.877309026907497
lfemur -28.082322896553112 2.1420197396297462 -17.14908453695594
ltibia 50.86930568314137
lfoot -35.53086825485982 -0.2856588116894936
ltoes -22.099437107594987
140
root 0 0 0 1.5398305478337728 -3.868253070471083 1.8518703090525013
lowerback 12.239333635706094 0.9608721633557642 0.025228359315484727
upperback -4.446822020666887 1.2164940300544145 -0.6309799010250773
thorax -11.735635528796232 0.5626906793501403 -0.9371725345306288
lowerneck -6.067522328885143 1.8661476213388226 4.774028656907273
upperneck 18.11064254303605 3.499040971615674 -8.585564361538632
head 6.648420631632897 1.3077562968830292 -3.280009996551243
rclavicle 2.159307439796819E-15 -7.097415957082643E-16
rhumerus 21.086931569130712 15.625531719113502 -47.80637482216307
rradius 73.275375608363
rwrist 26.69531858548313
rhand -34.615130917038954 -57.18114772607796
rfingers 7.1250200000000286
rthumb -7.717460022601227 -87.14224706161326
lclavicle -7.410394161080891E-16 -7.497849495930985E-16
lhumerus 23.16830645336276 -14.451306244691379 44.744689690689164
lradius 71.82616490416004
lwrist -22.254975499699825
lhand -45.75333128504359 -71.95596879621317
lfingers 7.1250200000000286
lthumb -18.50739824831218 -42.73937292538811
rfemur -24.96847170406624 -1.954404990908051 17.77428663622276
rtibia 50.676483137930724
rfoot -34.25073160072349 -18.283827737708563
rtoes -21.87576631973334
lfemur -28.08078415350189 2.143648574460302 -17.151279436879815
ltibia 50.87497626436325
lfoot -35.53034636387638 -0.2872237533492257
ltoes -22.096061092035335
141
root 0 0 0 1.539700505497934 -3.8679503985340267 1.8519371480065163
lowerback 12.239477636073143 0.9607094752264294 0.02515378520010575
upperback -4.446849365233152 1.2162820388882762 -0.6309379278396302
thorax -11.735764155559256 0.5625873188945596 -0.937066547522484
lowerneck -6.067345777338814 1.8661831605361001 4.774084437198556
upperneck 18.110421132986176 3.499104876284198 -8.58563982001134
head 6.648320382753411 1.3077863064603115 -3.2800367045120042
rclavicle 2.1580526475094324E-15 -7.109292608548068E-16
rhumerus 21.086647274693952 15.625032410599358 -47.80588946507702
rradius 73.27514813591404
rwrist 26.695856876092627
rhand -34.61515545686937 -57.18150886196897
rfingers 7.1250200000000286
rthumb -7.717477644064006 -87.14257056395795
lclavicle -7.41837048824197E-16 -7.509961885513327E-16
lhumerus 23.168778059020738 -14.451874559915813 44.74474711223569
lradius 71.82661448910807
lwrist -22.254752860777238
lhand -45.75345467128261 -71.95605489405935
lfingers 7.1250200000000286
lthumb -18.50751480404952 -42.73941591290965
rfemur -24.971435646733973 -1.954540229642558 17.773572311196418
rtibia 50.67725127822184
rfoot -34.24963121661061 -18.284818657612345
rtoes -21.87312250880015
lfemur -28.080358613733615 2.1449088207839715 -17.15293129884376
ltibia 50.87951118113304
lfoot -35.53161246524458 -0.2876511407365485
ltoes -22.09379259671136
